<?xml version="1.0" encoding="UTF-8"?>
<svg width="20px" height="20px" viewBox="0 0 20 20" version="1.1" xmlns="http://www.w3.org/2000/svg" xmlns:xlink="http://www.w3.org/1999/xlink">
    <title>添加</title>
    <g id="页面-1" stroke="none" stroke-width="1" fill="none" fill-rule="evenodd">
        <g id="校本资源" transform="translate(-1484.000000, -454.000000)" fill="#FFFFFF" fill-rule="nonzero">
            <g id="添加" transform="translate(1484.000000, 454.000000)">
                <path d="M9.95972955,19.7879832 C4.56854164,19.7879832 0.19809905,15.4166597 0.19809905,10.0247628 C0.19809905,4.63286593 4.56854164,0.261886234 9.95972955,0.261886234 C15.3509819,0.261886234 19.721403,4.63288741 19.721403,10.0247628 C19.721403,15.4166597 15.3509604,19.7879832 9.95972955,19.7879832 Z M9.95972955,1.48220015 C5.24237836,1.48220015 1.41832703,5.30681007 1.41832703,10.0247628 C1.41832703,14.7427156 5.24239984,18.56739 9.95972955,18.56739 C14.6770807,18.56739 18.5011321,14.7427156 18.5011321,10.0247628 C18.5011321,5.30681007 14.6770593,1.48220015 9.95972955,1.48220015 Z M13.620349,10.6350702 L10.5698865,10.6350702 L10.5698865,13.6860054 C10.5698865,14.0228142 10.2967231,14.2960699 9.95977467,14.2960699 C9.62282838,14.2960699 9.34971009,14.0228142 9.34971009,13.6860054 L9.34971009,10.6350702 L6.29916162,10.6350702 C5.96221533,10.6350702 5.68904978,10.3618595 5.68904978,10.0247736 C5.68904978,9.68791966 5.96226045,9.41470899 6.29916162,9.41470899 L9.34971009,9.41470899 L9.34971009,6.3636449 C9.34971009,6.02683611 9.62287349,5.75371997 9.95977467,5.75371997 C10.2967682,5.75371997 10.5698865,6.02679099 10.5698865,6.3636449 L10.5698865,9.41470899 L13.620349,9.41470899 C13.9573426,9.41470899 14.2304609,9.68791966 14.2304609,10.0247736 C14.2304609,10.3618595 13.9573426,10.6350702 13.620349,10.6350702 Z" id="形状"></path>
            </g>
        </g>
    </g>
</svg>