<?xml version="1.0" encoding="UTF-8"?>
<svg width="27px" height="26px" viewBox="0 0 27 26" version="1.1" xmlns="http://www.w3.org/2000/svg" xmlns:xlink="http://www.w3.org/1999/xlink">
    <title>编组</title>
    <g id="页面-1" stroke="none" stroke-width="1" fill="none" fill-rule="evenodd">
        <g id="题库助手/我的题库" transform="translate(-46.000000, -275.000000)">
            <g id="编组-7" transform="translate(46.000000, 275.000000)">
                <g id="编组" transform="translate(1.000000, 2.000000)">
                    <rect id="矩形" fill="#3D7FEE" x="6.07142857" y="3.63171013" width="6.07142857" height="1.64285714" rx="0.821428571"></rect>
                    <rect id="矩形备份" fill="#3D7FEE" x="6.07142857" y="7.50415911" width="11.7857143" height="1.64285714" rx="0.821428571"></rect>
                    <rect id="矩形备份-2" fill="#3D7FEE" x="6.07142857" y="11.0245673" width="9.28571429" height="1.64285714" rx="0.821428571"></rect>
                    <rect id="矩形备份-3" fill="#3D7FEE" x="6.07142857" y="14.8970163" width="11.7857143" height="1.64285714" rx="0.821428571"></rect>
                    <path d="M23.2142857,0.111301967 C24.2005085,0.111301967 25,0.910793485 25,1.89701625 L25,3.98375095 L25,3.98375095 L21.4285714,3.98375095 L21.4285714,1.89701625 C21.4285714,0.910793485 22.2280629,0.111301967 23.2142857,0.111301967 Z" id="矩形" stroke="#3D7FEE" stroke-width="2"></path>
                    <path d="M4.98803141,0.099400036 L22.7843366,5.00280089e-15 L22.7843366,5.00280089e-15 L21.9398492,0.991852019 C21.6098188,1.37947327 21.4285714,1.87193152 21.4285714,2.38101921 L21.4285714,20.8510979 C21.4285714,22.0345652 20.4691816,22.993955 19.2857143,22.993955 L17.8631592,22.993955 L17.8631592,22.993955 L2.85714286,22.993955 L2.85714286,2.24222375 C2.85714286,1.06342779 3.80925382,0.105984017 4.98803141,0.099400036 Z" id="矩形" stroke="#3D7FEE" stroke-width="2"></path>
                    <path d="M0.857142857,19.8255877 L17,19.8255877 C17.4733869,19.8255877 17.8571429,20.2093436 17.8571429,20.6827305 L17.8571429,22.993955 L17.8571429,22.993955 L1.58418367,22.993955 C0.70926319,22.993955 1.07146857e-16,22.2846918 0,21.4097714 L0,20.6827305 C-5.79731787e-17,20.2093436 0.383755929,19.8255877 0.857142857,19.8255877 Z" id="矩形" stroke="#3D7FEE" stroke-width="2" fill="#FFFFFF"></path>
                </g>
            </g>
        </g>
    </g>
</svg>