<?xml version="1.0" encoding="UTF-8"?>
<svg width="24px" height="24px" viewBox="0 0 24 24" version="1.1" xmlns="http://www.w3.org/2000/svg" xmlns:xlink="http://www.w3.org/1999/xlink">
    <title>guanbi</title>
    <g id="页面-1" stroke="none" stroke-width="1" fill="none" fill-rule="evenodd">
        <g id="修改作业" transform="translate(-481.000000, -802.000000)" fill-rule="nonzero">
            <g id="guanbi" transform="translate(481.000000, 802.000000)">
                <path d="M0.0172435855,11.8213816 C0.0172435855,18.340627 5.30213618,23.6255196 11.8213816,23.6255196 C18.340627,23.6255196 23.6255196,18.340627 23.6255196,11.8213816 C23.6255196,5.30213618 18.340627,0.0172435855 11.8213816,0.0172435855 C5.30213618,0.0172435855 0.0172435855,5.30213618 0.0172435855,11.8213816 Z" id="路径" fill="#FC6A6A"></path>
                <path d="M18.06566,5.85703051 C18.3838774,6.1911907 18.3838774,6.7162681 18.06566,7.05042829 L7.33438569,17.7817271 C7.00483124,18.1112747 6.47052341,18.1112692 6.14097573,17.7817148 C5.81142804,17.4521604 5.8114335,16.9178526 6.14098791,16.5883049 L16.8776112,5.85703051 C17.2110532,5.54219449 17.732218,5.54219449 18.06566,5.85703051 L18.06566,5.85703051 Z" id="路径" fill="#FFFFFF"></path>
                <path d="M6.13964457,5.85568717 C6.47380476,5.53746978 6.99888217,5.53746978 7.33304235,5.85568717 L18.0643411,16.5869615 C18.3938956,16.916516 18.3938956,17.4508293 18.0643411,17.7803837 C17.7347867,18.1099382 17.2004734,18.1099382 16.8709189,17.7803837 L6.13964457,7.04908495 C5.82142718,6.71492477 5.82142718,6.18984736 6.13964457,5.85568717 Z" id="路径" fill="#FFFFFF"></path>
            </g>
        </g>
    </g>
</svg>