<?xml version="1.0" encoding="UTF-8"?>
<svg width="40px" height="32px" viewBox="0 0 40 32" version="1.1" xmlns="http://www.w3.org/2000/svg" xmlns:xlink="http://www.w3.org/1999/xlink">
    <title>wenjianjia备份 2</title>
    <g id="页面-1" stroke="none" stroke-width="1" fill="none" fill-rule="evenodd">
        <g id="校本资源-添加弹窗" transform="translate(-594.000000, -269.000000)" fill-rule="nonzero">
            <g id="编组-17" transform="translate(546.000000, 180.000000)">
                <g id="编组-15" transform="translate(48.000000, 89.000000)">
                    <g id="wenjianjia备份-2" transform="translate(0.000000, 0.000000)">
                        <path d="M38.2384323,31.6666667 L1.76156775,31.6666667 C0.787368421,31.6666667 0,30.9757046 0,30.1207982 L0,4.87920177 C0,4.02429537 0.787368421,3.33333333 1.76156775,3.33333333 L38.2384323,3.33333333 C39.2126316,3.33333333 40,4.02429537 40,4.87920177 L40,30.1207982 C40,30.9718149 39.2081971,31.6666667 38.2384323,31.6666667 Z" id="路径" fill="#FFE9B4"></path>
                        <path d="M20,10.8333333 L0,10.8333333 L0,1.77711806 C0,0.794309028 0.78738255,0 1.761566,0 L15.4492617,0 C16.2277852,0 16.9127964,0.511604167 17.1352125,1.26551389 L20,10.8333333 Z" id="路径" fill="#FFB02C"></path>
                        <path d="M38.2384323,31.6666667 L1.76156775,31.6666667 C0.787368421,31.6666667 0,30.8929869 0,29.9357013 L0,7.56429869 C0,6.60701306 0.787368421,5.83333333 1.76156775,5.83333333 L38.2384323,5.83333333 C39.2126316,5.83333333 40,6.60701306 40,7.56429869 L40,29.9357013 C40,30.888586 39.2081971,31.6666667 38.2384323,31.6666667 Z" id="路径" fill="#FFCA28"></path>
                    </g>
                </g>
            </g>
        </g>
    </g>
</svg>