<?xml version="1.0" encoding="UTF-8"?>
<svg width="72px" height="76px" viewBox="0 0 72 76" version="1.1" xmlns="http://www.w3.org/2000/svg" xmlns:xlink="http://www.w3.org/1999/xlink">
    <title>编组 14</title>
    <g id="页面-1" stroke="none" stroke-width="1" fill="none" fill-rule="evenodd">
        <g id="座位图" transform="translate(-1460.000000, -732.000000)">
            <g id="编组-14" transform="translate(1460.000000, 732.000000)">
                <rect id="矩形" fill="#FFFFFF" x="0" y="5.4432" width="71.5392" height="42.768" rx="1.5552"></rect>
                <path d="M30.9335317,0 L40.6056683,0 C40.9624837,7.11610177e-16 41.2735106,0.242842438 41.3600511,0.589004298 L41.7488511,2.1442043 C41.8530096,2.56083842 41.5996981,2.98302428 41.183064,3.08718281 C41.1213843,3.10260273 41.0580462,3.1104 40.9944683,3.1104 L30.5447317,3.1104 C30.1152751,3.1104 29.7671317,2.76225662 29.7671317,2.3328 C29.7671317,2.26922202 29.774929,2.205884 29.7903489,2.1442043 L30.1791489,0.589004298 C30.2656894,0.242842438 30.5767163,-4.54763625e-17 30.9335317,0 Z" id="矩形" fill="#FFFFFF"></path>
                <path d="M5.4432,50.544 L66.096,50.544 L66.096,51.3216 C66.096,52.6099699 65.0515699,53.6544 63.7632,53.6544 L7.776,53.6544 C6.48763014,53.6544 5.4432,52.6099699 5.4432,51.3216 L5.4432,50.544 L5.4432,50.544 Z" id="矩形" fill="#FFFFFF"></path>
                <line x1="13.9968" y1="55.6543572" x2="8.57401748" y2="74.6221483" id="路径-5" stroke="#FFFFFF" stroke-width="1.5552" stroke-linecap="round" stroke-linejoin="round"></line>
                <line x1="61.4099825" y1="55.9872" x2="55.9872" y2="74.9549911" id="路径-5备份" stroke="#FFFFFF" stroke-width="1.5552" stroke-linecap="round" stroke-linejoin="round" transform="translate(58.698591, 65.471096) scale(1, -1) translate(-58.698591, -65.471096) "></line>
                <rect id="矩形" fill="#FFFFFF" x="12.4416" y="60.6528" width="45.8784" height="1.5552"></rect>
            </g>
        </g>
    </g>
</svg>