<?xml version="1.0" encoding="UTF-8"?>
<svg width="49px" height="49px" viewBox="0 0 49 49" version="1.1" xmlns="http://www.w3.org/2000/svg" xmlns:xlink="http://www.w3.org/1999/xlink">
    <title>Combined Shape</title>
    <g id="页面-1备份" stroke="none" stroke-width="1" fill="none" fill-rule="evenodd">
        <g id="加载" transform="translate(-1049.000000, -510.000000)" fill="" fill-rule="nonzero">
            <g id="2.Toast-DM/Loading" transform="translate(985.000000, 472.000000)">
                <g id="loading" transform="translate(-0.000000, 0.000000)">
                    <g id="loading_icon" transform="translate(64.639706, 38.610294)">
                        <g id="编组-6" transform="translate(-0.639706, -0.610294)">
                            <path d="M24.5,0.610294118 C37.6776766,0.610294118 48.3602941,11.2929117 48.3602941,24.4705882 C48.3602941,37.6482648 37.6776766,48.3308824 24.5,48.3308824 C11.3223234,48.3308824 0.639705882,37.6482648 0.639705882,24.4705882 C0.639705882,11.2929117 11.3223234,0.610294118 24.5,0.610294118 Z M24.5,4.5870098 C13.5186029,4.5870098 4.61642157,13.4891911 4.61642157,24.4705882 C4.61642157,35.4519854 13.5186029,44.3541667 24.5,44.3541667 C35.4813971,44.3541667 44.3835784,35.4519854 44.3835784,24.4705882 C44.3835784,13.4891911 35.4813971,4.5870098 24.5,4.5870098 Z" id="Combined-Shape"></path>
                        </g>
                    </g>
                </g>
            </g>
        </g>
    </g>
</svg>