<?xml version="1.0" encoding="UTF-8"?>
<svg width="20px" height="20px" viewBox="0 0 20 20" version="1.1" xmlns="http://www.w3.org/2000/svg" xmlns:xlink="http://www.w3.org/1999/xlink">
    <title>shijian-2</title>
    <g id="页面-1" stroke="none" stroke-width="1" fill="none" fill-rule="evenodd">
        <g id="座位图-故障" transform="translate(-1321.000000, -449.000000)" fill="#F6604B" fill-rule="nonzero">
            <g id="shijian-2" transform="translate(1321.000000, 449.000000)">
                <path d="M10,0 C4.47767857,0 0,4.47767857 0,10 C0,15.5223214 4.47767857,20 10,20 C15.5223214,20 20,15.5223214 20,10 C20,4.47767857 15.5223214,0 10,0 Z M14.171875,10.4799107 C14.171875,10.9397321 13.7946429,11.3169643 13.3348214,11.3169643 L9.43303571,11.3169643 C9.02455357,11.3169643 8.68303571,11.0223214 8.61160714,10.6339286 C8.58705357,10.5535714 8.57366071,10.4709821 8.57366071,10.3839286 L8.57366071,5.078125 C8.57366071,4.61830357 8.95089286,4.24107143 9.41071429,4.24107143 L9.53571429,4.24107143 C9.99553571,4.24107143 10.3727679,4.61830357 10.3727679,5.078125 L10.3727679,9.51785714 L13.3370536,9.51785714 C13.796875,9.51785714 14.1741071,9.89508929 14.1741071,10.3549107 L14.1741071,10.4799107 L14.171875,10.4799107 Z" id="形状"></path>
            </g>
        </g>
    </g>
</svg>