<?xml version="1.0" encoding="UTF-8"?>
<svg width="24px" height="18px" viewBox="0 0 24 18" version="1.1" xmlns="http://www.w3.org/2000/svg" xmlns:xlink="http://www.w3.org/1999/xlink">
    <title>新建文件夹</title>
    <g id="页面-1" stroke="none" stroke-width="1" fill="none" fill-rule="evenodd">
        <g id="校本资源（超管）" transform="translate(-481.000000, -396.000000)" fill="#000000" fill-rule="nonzero">
            <g id="新建文件夹" transform="translate(481.000000, 396.000000)">
                <path d="M23.1153832,14.0891826 L20.192299,14.0891826 L20.192299,16.9070206 C20.192299,17.2186724 19.9309766,17.4705882 19.6076822,17.4705882 C19.2843903,17.4705882 19.0230653,17.2186748 19.0230653,16.9070206 L19.0230653,14.0891826 L16.0999812,14.0891826 C15.7766893,14.0891826 15.5153643,13.8372692 15.5153643,13.525615 C15.5153643,13.2145255 15.7766867,12.9620474 16.0999812,12.9620474 L19.0230653,12.9620474 L19.0230653,10.1442094 C19.0230653,9.83311987 19.2843877,9.58064181 19.6076822,9.58064181 C19.9309741,9.58064181 20.192299,9.83311987 20.192299,10.1442094 L20.192299,12.9620474 L23.1153832,12.9620474 C23.4386751,12.9620474 23.7,13.2145255 23.7,13.525615 C23.7,13.8372667 23.4386776,14.0891826 23.1153832,14.0891826 Z M19.0230705,3.9449856 C19.0230705,3.32280901 18.4992542,2.81785287 17.8538394,2.81785287 L11.4230696,2.81785287 L10.8384528,2.81785287 L9.66922168,2.81785287 L9.66922168,2.25428527 C9.66922168,1.63210868 9.14540545,1.12715254 8.49999058,1.12715254 L3.23844935,1.12715254 C2.59303448,1.12715254 2.06921825,1.63210868 2.06921825,2.25428527 L2.06921825,3.9449856 L2.06921825,5.07211833 L2.06921825,6.65912049 L2.06921825,9.01708163 L2.06921825,15.2163104 C2.06921825,15.838487 2.59303448,16.3434431 3.23844935,16.3434431 L14.3461589,16.3434431 L14.3461589,17.4705759 L2.65384793,17.4705759 C1.68572435,17.4705759 0.9,16.7137063 0.9,15.7798755 L0.9,5.07210099 L0.9,3.38140066 L0.9,1.69070033 C0.9,0.756869536 1.68572437,0 2.65384796,0 L9.08461772,0 C10.0527413,0 10.8384656,0.756869536 10.8384656,1.69070033 L18.4384639,1.69070033 C19.4065875,1.69070033 20.1923119,2.44756987 20.1923119,3.38140066 L20.1923119,6.76279141 L19.0230808,6.76279141 L19.0230807,3.9449534 L19.0230705,3.9449856 Z" id="形状"></path>
            </g>
        </g>
    </g>
</svg>