<?xml version="1.0" encoding="UTF-8"?>
<svg width="60px" height="40px" viewBox="0 0 60 40" version="1.1" xmlns="http://www.w3.org/2000/svg" xmlns:xlink="http://www.w3.org/1999/xlink">
    <title>编组 19</title>
    <g id="页面-1" stroke="none" stroke-width="1" fill="none" fill-rule="evenodd">
        <g id="校本资源（超管）" transform="translate(-1771.000000, -241.000000)">
            <g id="编组-19" transform="translate(1771.000000, 241.000000)">
                <rect id="矩形备份-2" fill="#3E83F8" x="0" y="0" width="60" height="40" rx="4"></rect>
                <g id="搜索" transform="translate(17.000000, 7.000000)" fill-rule="nonzero">
                    <rect id="矩形" fill="#000000" opacity="0" x="0" y="0" width="26" height="26"></rect>
                    <path d="M22.5291016,21.3801758 L19.0526172,17.9036914 C21.9768555,14.3959766 21.7978516,9.15839844 18.5072266,5.86751953 C15.0223633,2.38265625 9.35238281,2.38265625 5.86751953,5.86751953 C2.38316406,9.35238281 2.38316406,15.0223633 5.86751953,18.5072266 C7.61007813,20.2497852 9.89878906,21.1206836 12.1875,21.1206836 C14.221543,21.1206836 16.2533008,20.429043 17.9036914,19.0528711 L21.3801758,22.5291016 C21.5388672,22.687793 21.7468164,22.7672656 21.9545117,22.7672656 C22.162207,22.7672656 22.3704102,22.6880469 22.5288477,22.5291016 C22.8464844,22.2117188 22.8464844,21.6975586 22.5291016,21.3801758 Z M7.01644531,17.3585547 C4.16558594,14.5071875 4.16558594,9.8678125 7.01644531,7.01669922 C8.44238281,5.59126953 10.3149414,4.87880859 12.1875,4.87880859 C14.0600586,4.87880859 15.9326172,5.59126953 17.3585547,7.01669922 C20.2094141,9.86806641 20.2094141,14.5074414 17.3585547,17.3585547 C14.5066797,20.2086523 9.86730469,20.2086523 7.01644531,17.3585547 Z" id="形状" stroke="#FFFFFF" fill="#FFFFFF"></path>
                </g>
            </g>
        </g>
    </g>
</svg>