<?xml version="1.0" encoding="UTF-8"?>
<svg width="20px" height="20px" viewBox="0 0 20 20" version="1.1" xmlns="http://www.w3.org/2000/svg" xmlns:xlink="http://www.w3.org/1999/xlink">
    <title>shangchuan</title>
    <g id="页面-1" stroke="none" stroke-width="1" fill="none" fill-rule="evenodd">
        <g id="校本资源（超管）" transform="translate(-350.000000, -396.000000)" fill="#FFFFFF" fill-rule="nonzero">
            <g id="shangchuan" transform="translate(350.000000, 396.000000)">
                <path d="M10.4166667,15.3890655 C10.4166667,15.8893234 10.0111275,16.2948626 9.51086957,16.2948626 C9.01061164,16.2948626 8.60507246,15.8893234 8.60507246,15.3890655 L8.60507246,2.7079061 C8.60507246,2.20764818 9.01061164,1.802109 9.51086957,1.802109 C10.0111275,1.802109 10.4166667,2.20764818 10.4166667,2.7079061 L10.4166667,15.3890655 Z" id="路径"></path>
                <path d="M18.115942,18.1442482 L18.115942,13.6152627 C18.115942,13.1150048 18.5214812,12.7094656 19.0217391,12.7094656 C19.5219971,12.7094656 19.9275362,13.1150048 19.9275362,13.6152627 L19.9275362,19.0500453 C19.9275362,19.5503032 19.5219971,19.9558424 19.0217391,19.9558424 L0.905797101,19.9558424 C0.405539176,19.9558424 0,19.5503032 0,19.0500453 L0,13.6152627 C0,13.1150048 0.405539176,12.7094656 0.905797101,12.7094656 C1.40605503,12.7094656 1.8115942,13.1150048 1.8115942,13.6152627 L1.8115942,18.1442482 L18.115942,18.1442482 Z M9.51086957,2.27468297 L5.19927536,6.9848279 C4.85909997,7.35501876 4.28323434,7.37935111 3.91304348,7.03917572 C3.54285261,6.69900034 3.51852026,6.12313471 3.85869565,5.75294384 L8.84057971,0.318161232 C9.01225043,0.12928964 9.25563768,0.0216094826 9.51086957,0.0216094826 C9.76610145,0.0216094826 10.0094887,0.12928964 10.1811594,0.318161232 L15.1630435,5.75294384 C15.5032189,6.12313471 15.4788865,6.69900034 15.1086957,7.03917572 C14.7385048,7.37935111 14.1626392,7.35501876 13.8224638,6.9848279 L9.51086957,2.27468297 Z" id="形状"></path>
            </g>
        </g>
    </g>
</svg>